<mxfile host="app.diagrams.net" agent="Mozilla/5.0 (Windows NT 10.0; Win64; x64) AppleWebKit/537.36 (KHTML, like Gecko) Chrome/134.0.0.0 Safari/537.36" version="26.1.0">
  <diagram name="PÃ¡gina-1" id="fh3l5JAtcwN4DxrLxvHm">
    <mxGraphModel dx="1222" dy="662" grid="1" gridSize="10" guides="1" tooltips="1" connect="1" arrows="1" fold="1" page="1" pageScale="1" pageWidth="827" pageHeight="1169" math="0" shadow="0">
      <root>
        <mxCell id="0" />
        <mxCell id="1" parent="0" />
        <mxCell id="9jzzl83fZ5NG2uD0tE47-1" value="" style="ellipse;whiteSpace=wrap;html=1;" vertex="1" parent="1">
          <mxGeometry x="-490" y="50" width="120" height="80" as="geometry" />
        </mxCell>
        <mxCell id="9jzzl83fZ5NG2uD0tE47-6" value="" style="endArrow=classic;html=1;rounded=0;entryX=0.5;entryY=0;entryDx=0;entryDy=0;exitX=0.5;exitY=1;exitDx=0;exitDy=0;" edge="1" parent="1" source="9jzzl83fZ5NG2uD0tE47-1">
          <mxGeometry width="50" height="50" relative="1" as="geometry">
            <mxPoint x="-530" y="180" as="sourcePoint" />
            <mxPoint x="-430" y="200" as="targetPoint" />
          </mxGeometry>
        </mxCell>
        <mxCell id="9jzzl83fZ5NG2uD0tE47-8" value="" style="shape=parallelogram;perimeter=parallelogramPerimeter;whiteSpace=wrap;html=1;fixedSize=1;" vertex="1" parent="1">
          <mxGeometry x="-500" y="200" width="120" height="60" as="geometry" />
        </mxCell>
        <mxCell id="9jzzl83fZ5NG2uD0tE47-11" value="" style="endArrow=classic;html=1;rounded=0;exitX=0.449;exitY=1.022;exitDx=0;exitDy=0;exitPerimeter=0;" edge="1" parent="1" source="9jzzl83fZ5NG2uD0tE47-8" target="9jzzl83fZ5NG2uD0tE47-12">
          <mxGeometry width="50" height="50" relative="1" as="geometry">
            <mxPoint x="-450" y="250" as="sourcePoint" />
            <mxPoint x="-446" y="320" as="targetPoint" />
          </mxGeometry>
        </mxCell>
        <mxCell id="9jzzl83fZ5NG2uD0tE47-12" value="" style="rounded=0;whiteSpace=wrap;html=1;" vertex="1" parent="1">
          <mxGeometry x="-510" y="319.9999999999999" width="120" height="60" as="geometry" />
        </mxCell>
        <mxCell id="9jzzl83fZ5NG2uD0tE47-17" value="" style="ellipse;whiteSpace=wrap;html=1;" vertex="1" parent="1">
          <mxGeometry x="-500" y="430" width="120" height="80" as="geometry" />
        </mxCell>
        <mxCell id="9jzzl83fZ5NG2uD0tE47-19" value="" style="endArrow=classic;html=1;rounded=0;entryX=0.456;entryY=0.058;entryDx=0;entryDy=0;entryPerimeter=0;" edge="1" parent="1" target="9jzzl83fZ5NG2uD0tE47-17">
          <mxGeometry width="50" height="50" relative="1" as="geometry">
            <mxPoint x="-450" y="380" as="sourcePoint" />
            <mxPoint x="-400" y="330" as="targetPoint" />
          </mxGeometry>
        </mxCell>
        <mxCell id="9jzzl83fZ5NG2uD0tE47-20" value="FIN" style="text;html=1;align=center;verticalAlign=middle;whiteSpace=wrap;rounded=0;" vertex="1" parent="1">
          <mxGeometry x="-475" y="447.5" width="85" height="45" as="geometry" />
        </mxCell>
        <mxCell id="9jzzl83fZ5NG2uD0tE47-22" value="hola john&amp;nbsp;" style="text;html=1;align=center;verticalAlign=middle;whiteSpace=wrap;rounded=0;" vertex="1" parent="1">
          <mxGeometry x="-480" y="335" width="60" height="30" as="geometry" />
        </mxCell>
        <mxCell id="9jzzl83fZ5NG2uD0tE47-23" value="Ingrese&amp;nbsp; su nombre&amp;nbsp;" style="text;html=1;align=center;verticalAlign=middle;whiteSpace=wrap;rounded=0;" vertex="1" parent="1">
          <mxGeometry x="-475" y="215" width="60" height="30" as="geometry" />
        </mxCell>
        <mxCell id="9jzzl83fZ5NG2uD0tE47-24" value="INICIO&lt;div&gt;&lt;br&gt;&lt;/div&gt;" style="text;html=1;align=center;verticalAlign=middle;whiteSpace=wrap;rounded=0;" vertex="1" parent="1">
          <mxGeometry x="-462.5" y="75" width="60" height="30" as="geometry" />
        </mxCell>
      </root>
    </mxGraphModel>
  </diagram>
</mxfile>
